<mxfile host="app.diagrams.net" modified="2024-07-20T03:45:56.621Z" agent="Mozilla/5.0 (Windows NT 10.0; Win64; x64; rv:126.0) Gecko/20100101 Firefox/126.0" etag="0fB4KkE3XeFJKA7lXEkR" version="24.7.2" type="github">
  <diagram name="Page-1" id="tmTa74DvuVe0W2aihUYn">
    <mxGraphModel dx="2785" dy="1818" grid="1" gridSize="10" guides="1" tooltips="1" connect="1" arrows="1" fold="1" page="1" pageScale="1" pageWidth="827" pageHeight="1169" math="0" shadow="0">
      <root>
        <mxCell id="0" />
        <mxCell id="1" parent="0" />
        <mxCell id="V92qSwm7xt-AE-d6XJVa-58" value="" style="group" vertex="1" connectable="0" parent="1">
          <mxGeometry x="110" y="70" width="2320" height="2230" as="geometry" />
        </mxCell>
        <mxCell id="V92qSwm7xt-AE-d6XJVa-1" value="" style="group" vertex="1" connectable="0" parent="V92qSwm7xt-AE-d6XJVa-58">
          <mxGeometry width="2320" height="935.8035714285714" as="geometry" />
        </mxCell>
        <mxCell id="V92qSwm7xt-AE-d6XJVa-2" value="&lt;b&gt;&lt;u&gt;&lt;font style=&quot;font-size: 23px;&quot;&gt;Rough Draft UML Diagram&lt;/font&gt;&lt;/u&gt;&lt;/b&gt;" style="text;html=1;align=center;verticalAlign=middle;whiteSpace=wrap;rounded=0;strokeWidth=2;" vertex="1" parent="V92qSwm7xt-AE-d6XJVa-1">
          <mxGeometry y="43.533595641646485" width="987.8998073217728" height="65.30039346246973" as="geometry" />
        </mxCell>
        <mxCell id="V92qSwm7xt-AE-d6XJVa-3" value="" style="group" vertex="1" connectable="0" parent="V92qSwm7xt-AE-d6XJVa-1">
          <mxGeometry x="291.3008092485549" width="2028.699190751445" height="935.8035714285714" as="geometry" />
        </mxCell>
        <mxCell id="V92qSwm7xt-AE-d6XJVa-4" value="" style="ellipse;whiteSpace=wrap;html=1;fillColor=#000000;strokeWidth=2;" vertex="1" parent="V92qSwm7xt-AE-d6XJVa-3">
          <mxGeometry x="102.16470744791447" y="206.19400726392251" width="29.189916413689858" height="15.861077481840193" as="geometry" />
        </mxCell>
        <mxCell id="V92qSwm7xt-AE-d6XJVa-5" value="" style="endArrow=classic;html=1;rounded=0;strokeWidth=2;" edge="1" parent="V92qSwm7xt-AE-d6XJVa-3">
          <mxGeometry width="50" height="50" relative="1" as="geometry">
            <mxPoint x="131.35462386160435" y="206.19400726392251" as="sourcePoint" />
            <mxPoint x="277.3042059300537" y="206.19400726392251" as="targetPoint" />
          </mxGeometry>
        </mxCell>
        <mxCell id="V92qSwm7xt-AE-d6XJVa-6" value="" style="endArrow=classic;html=1;rounded=0;strokeWidth=2;" edge="1" parent="V92qSwm7xt-AE-d6XJVa-3">
          <mxGeometry width="50" height="50" relative="1" as="geometry">
            <mxPoint x="452.44370441219286" y="206.19400726392251" as="sourcePoint" />
            <mxPoint x="627.5832028943317" y="206.19400726392251" as="targetPoint" />
          </mxGeometry>
        </mxCell>
        <mxCell id="V92qSwm7xt-AE-d6XJVa-7" value="" style="endArrow=classic;html=1;rounded=0;strokeWidth=2;" edge="1" parent="V92qSwm7xt-AE-d6XJVa-3">
          <mxGeometry width="50" height="50" relative="1" as="geometry">
            <mxPoint x="861.1025342038507" y="201.43568401937046" as="sourcePoint" />
            <mxPoint x="1036.2420326859897" y="201.43568401937046" as="targetPoint" />
          </mxGeometry>
        </mxCell>
        <mxCell id="V92qSwm7xt-AE-d6XJVa-8" value="" style="endArrow=classic;html=1;rounded=0;strokeWidth=2;" edge="1" parent="V92qSwm7xt-AE-d6XJVa-3">
          <mxGeometry width="50" height="50" relative="1" as="geometry">
            <mxPoint x="1240.5714475818188" y="199.84957627118644" as="sourcePoint" />
            <mxPoint x="1386.521029650268" y="199.45304933414042" as="targetPoint" />
          </mxGeometry>
        </mxCell>
        <mxCell id="V92qSwm7xt-AE-d6XJVa-9" value="" style="endArrow=classic;html=1;rounded=0;strokeWidth=2;" edge="1" parent="V92qSwm7xt-AE-d6XJVa-3">
          <mxGeometry width="50" height="50" relative="1" as="geometry">
            <mxPoint x="1501.8211994843427" y="71.37484866828088" as="sourcePoint" />
            <mxPoint x="1501.8211994843427" y="162.576044188862" as="targetPoint" />
          </mxGeometry>
        </mxCell>
        <mxCell id="V92qSwm7xt-AE-d6XJVa-10" value="" style="endArrow=classic;html=1;rounded=0;strokeWidth=2;" edge="1" parent="V92qSwm7xt-AE-d6XJVa-3">
          <mxGeometry width="50" height="50" relative="1" as="geometry">
            <mxPoint x="1503.2806953050276" y="241.88143159806293" as="sourcePoint" />
            <mxPoint x="1503.2806953050276" y="317.22154963680384" as="targetPoint" />
          </mxGeometry>
        </mxCell>
        <mxCell id="V92qSwm7xt-AE-d6XJVa-11" value="" style="endArrow=classic;html=1;rounded=0;strokeWidth=2;" edge="1" parent="V92qSwm7xt-AE-d6XJVa-3">
          <mxGeometry width="50" height="50" relative="1" as="geometry">
            <mxPoint x="1605.4454027529423" y="459.9712469733656" as="sourcePoint" />
            <mxPoint x="1736.8000266145461" y="507.55447941888616" as="targetPoint" />
          </mxGeometry>
        </mxCell>
        <mxCell id="V92qSwm7xt-AE-d6XJVa-12" value="" style="endArrow=none;html=1;rounded=0;strokeWidth=6;" edge="1" parent="V92qSwm7xt-AE-d6XJVa-3">
          <mxGeometry width="50" height="50" relative="1" as="geometry">
            <mxPoint x="1401.1159878571132" y="459.9712469733656" as="sourcePoint" />
            <mxPoint x="1605.4454027529423" y="459.9712469733656" as="targetPoint" />
          </mxGeometry>
        </mxCell>
        <mxCell id="V92qSwm7xt-AE-d6XJVa-13" value="" style="endArrow=classic;html=1;rounded=0;strokeWidth=2;" edge="1" parent="V92qSwm7xt-AE-d6XJVa-3">
          <mxGeometry width="50" height="50" relative="1" as="geometry">
            <mxPoint x="1501.8211994843427" y="412.38801452784503" as="sourcePoint" />
            <mxPoint x="1503.2806953050276" y="459.9712469733656" as="targetPoint" />
          </mxGeometry>
        </mxCell>
        <mxCell id="V92qSwm7xt-AE-d6XJVa-14" value="&lt;font style=&quot;font-size: 24px;&quot;&gt;Log Predictions&lt;/font&gt;" style="rounded=1;whiteSpace=wrap;html=1;strokeWidth=2;fillColor=#fff2cc;strokeColor=#d6b656;" vertex="1" parent="V92qSwm7xt-AE-d6XJVa-3">
          <mxGeometry x="1736.8000266145461" y="507.55447941888616" width="291.8991641368986" height="63.44430992736077" as="geometry" />
        </mxCell>
        <mxCell id="V92qSwm7xt-AE-d6XJVa-15" value="" style="endArrow=classic;html=1;rounded=0;strokeWidth=2;" edge="1" parent="V92qSwm7xt-AE-d6XJVa-3">
          <mxGeometry width="50" height="50" relative="1" as="geometry">
            <mxPoint x="1410.5597843438952" y="457.02034883720927" as="sourcePoint" />
            <mxPoint x="1240.5714475818188" y="507.55447941888616" as="targetPoint" />
          </mxGeometry>
        </mxCell>
        <mxCell id="V92qSwm7xt-AE-d6XJVa-16" value="" style="endArrow=classic;html=1;rounded=0;strokeWidth=2;" edge="1" parent="V92qSwm7xt-AE-d6XJVa-3">
          <mxGeometry width="50" height="50" relative="1" as="geometry">
            <mxPoint x="948.6722834449204" y="539.2766343825665" as="sourcePoint" />
            <mxPoint x="802.7227013764713" y="539.2766343825665" as="targetPoint" />
          </mxGeometry>
        </mxCell>
        <mxCell id="V92qSwm7xt-AE-d6XJVa-17" value="" style="endArrow=classic;html=1;rounded=0;entryX=0.5;entryY=1;entryDx=0;entryDy=0;strokeWidth=2;" edge="1" parent="V92qSwm7xt-AE-d6XJVa-3" target="V92qSwm7xt-AE-d6XJVa-19">
          <mxGeometry width="50" height="50" relative="1" as="geometry">
            <mxPoint x="598.393286480642" y="491.693401937046" as="sourcePoint" />
            <mxPoint x="744.3428685490912" y="412.38801452784503" as="targetPoint" />
          </mxGeometry>
        </mxCell>
        <mxCell id="V92qSwm7xt-AE-d6XJVa-18" value="" style="group" vertex="1" connectable="0" parent="V92qSwm7xt-AE-d6XJVa-3">
          <mxGeometry width="1620.0403609597868" height="935.8035714285714" as="geometry" />
        </mxCell>
        <mxCell id="V92qSwm7xt-AE-d6XJVa-19" value="&lt;font style=&quot;font-size: 24px;&quot;&gt;GUI&lt;/font&gt;" style="rounded=0;whiteSpace=wrap;html=1;strokeWidth=2;fillColor=#f8cecc;strokeColor=#b85450;" vertex="1" parent="V92qSwm7xt-AE-d6XJVa-18">
          <mxGeometry x="277.3042059300537" y="166.54131355932205" width="175.13949848213912" height="87.23592615012106" as="geometry" />
        </mxCell>
        <mxCell id="V92qSwm7xt-AE-d6XJVa-20" value="&lt;div style=&quot;font-size: 24px;&quot;&gt;&lt;font style=&quot;font-size: 24px;&quot;&gt;Obtain&lt;/font&gt;&lt;/div&gt;&lt;div style=&quot;font-size: 24px;&quot;&gt;&lt;font style=&quot;font-size: 24px;&quot;&gt;User Stock Data&lt;/font&gt;&lt;/div&gt;" style="rounded=1;whiteSpace=wrap;html=1;strokeWidth=2;fillColor=#fff2cc;strokeColor=#d6b656;" vertex="1" parent="V92qSwm7xt-AE-d6XJVa-18">
          <mxGeometry x="627.5832028943319" y="162.576044188862" width="233.51933130951886" height="75.3401180387409" as="geometry" />
        </mxCell>
        <mxCell id="V92qSwm7xt-AE-d6XJVa-21" value="&lt;div style=&quot;font-size: 24px;&quot;&gt;&lt;font style=&quot;font-size: 24px;&quot;&gt;User Stock data (or default data)&lt;br&gt;&lt;/font&gt;&lt;/div&gt;" style="rounded=0;whiteSpace=wrap;html=1;strokeWidth=2;fillColor=#f8cecc;strokeColor=#b85450;" vertex="1" parent="V92qSwm7xt-AE-d6XJVa-18">
          <mxGeometry x="1036.24203268599" y="166.54131355932205" width="204.329414895829" height="103.09700363196126" as="geometry" />
        </mxCell>
        <mxCell id="V92qSwm7xt-AE-d6XJVa-22" value="&lt;font style=&quot;font-size: 24px;&quot;&gt;ML Algorithm&lt;/font&gt;" style="rounded=1;whiteSpace=wrap;html=1;strokeWidth=2;fillColor=#fff2cc;strokeColor=#d6b656;" vertex="1" parent="V92qSwm7xt-AE-d6XJVa-18">
          <mxGeometry x="1386.521029650268" y="166.54131355932205" width="233.51933130951886" height="75.3401180387409" as="geometry" />
        </mxCell>
        <mxCell id="V92qSwm7xt-AE-d6XJVa-23" value="&lt;font style=&quot;font-size: 24px;&quot;&gt;Training Data&lt;/font&gt;" style="rounded=0;whiteSpace=wrap;html=1;strokeWidth=2;fillColor=#f8cecc;strokeColor=#b85450;" vertex="1" parent="V92qSwm7xt-AE-d6XJVa-18">
          <mxGeometry x="1415.710946063958" width="175.13949848213912" height="71.37484866828088" as="geometry" />
        </mxCell>
        <mxCell id="V92qSwm7xt-AE-d6XJVa-24" value="&lt;div style=&quot;font-size: 24px;&quot;&gt;&lt;font style=&quot;font-size: 24px;&quot;&gt;Raw Predictions&lt;/font&gt;&lt;/div&gt;" style="rounded=0;whiteSpace=wrap;html=1;strokeWidth=2;fillColor=#f8cecc;strokeColor=#b85450;" vertex="1" parent="V92qSwm7xt-AE-d6XJVa-18">
          <mxGeometry x="1401.115987857113" y="317.22154963680384" width="204.329414895829" height="95.16646489104114" as="geometry" />
        </mxCell>
        <mxCell id="V92qSwm7xt-AE-d6XJVa-25" value="&lt;font style=&quot;font-size: 24px;&quot;&gt;Read / Prepare data&lt;/font&gt;" style="rounded=1;whiteSpace=wrap;html=1;strokeWidth=2;fillColor=#fff2cc;strokeColor=#d6b656;" vertex="1" parent="V92qSwm7xt-AE-d6XJVa-18">
          <mxGeometry x="948.6722834449203" y="507.55447941888616" width="291.8991641368986" height="63.44430992736077" as="geometry" />
        </mxCell>
        <mxCell id="V92qSwm7xt-AE-d6XJVa-26" value="&lt;div style=&quot;font-size: 24px;&quot;&gt;&lt;font style=&quot;font-size: 24px;&quot;&gt;Prediction&lt;/font&gt;&lt;/div&gt;&lt;div style=&quot;font-size: 24px;&quot;&gt;&lt;font style=&quot;font-size: 24px;&quot;&gt;Data&lt;br&gt;&lt;/font&gt;&lt;/div&gt;" style="rounded=0;whiteSpace=wrap;html=1;strokeWidth=2;fillColor=#f8cecc;strokeColor=#b85450;" vertex="1" parent="V92qSwm7xt-AE-d6XJVa-18">
          <mxGeometry x="598.393286480642" y="491.693401937046" width="204.329414895829" height="103.09700363196126" as="geometry" />
        </mxCell>
        <mxCell id="V92qSwm7xt-AE-d6XJVa-27" value="&lt;div&gt;Note: GUI will give this data through the GUI&lt;/div&gt;" style="text;html=1;align=center;verticalAlign=middle;whiteSpace=wrap;rounded=0;strokeWidth=2;" vertex="1" parent="V92qSwm7xt-AE-d6XJVa-18">
          <mxGeometry x="14.594958206844929" y="364.80478208232444" width="467.0386626190377" height="63.44430992736077" as="geometry" />
        </mxCell>
        <mxCell id="V92qSwm7xt-AE-d6XJVa-28" value="" style="rounded=0;whiteSpace=wrap;html=1;strokeWidth=2;fillColor=#f8cecc;strokeColor=#b85450;" vertex="1" parent="V92qSwm7xt-AE-d6XJVa-18">
          <mxGeometry y="808.9149515738499" width="102.1647074479145" height="47.58323244552057" as="geometry" />
        </mxCell>
        <mxCell id="V92qSwm7xt-AE-d6XJVa-29" value="&lt;div style=&quot;font-size: 24px;&quot; align=&quot;left&quot;&gt;&lt;font style=&quot;font-size: 24px;&quot;&gt;&lt;b&gt;- Objects / Data&lt;br&gt;&lt;/b&gt;&lt;/font&gt;&lt;/div&gt;" style="text;html=1;align=left;verticalAlign=middle;whiteSpace=wrap;rounded=0;strokeWidth=2;" vertex="1" parent="V92qSwm7xt-AE-d6XJVa-18">
          <mxGeometry x="116.75966565475943" y="808.9149515738499" width="335.68403875743337" height="47.58323244552057" as="geometry" />
        </mxCell>
        <mxCell id="V92qSwm7xt-AE-d6XJVa-30" value="" style="rounded=1;whiteSpace=wrap;html=1;strokeWidth=2;fillColor=#fff2cc;strokeColor=#d6b656;" vertex="1" parent="V92qSwm7xt-AE-d6XJVa-18">
          <mxGeometry y="888.2203389830507" width="102.1647074479145" height="47.58323244552057" as="geometry" />
        </mxCell>
        <mxCell id="V92qSwm7xt-AE-d6XJVa-31" value="&lt;div style=&quot;font-size: 24px;&quot; align=&quot;left&quot;&gt;&lt;font style=&quot;font-size: 24px;&quot;&gt;&lt;b&gt;- Methods&lt;br&gt;&lt;/b&gt;&lt;/font&gt;&lt;/div&gt;" style="text;html=1;align=left;verticalAlign=middle;whiteSpace=wrap;rounded=0;strokeWidth=2;" vertex="1" parent="V92qSwm7xt-AE-d6XJVa-18">
          <mxGeometry x="131.35462386160435" y="888.2203389830507" width="335.68403875743337" height="47.58323244552057" as="geometry" />
        </mxCell>
        <mxCell id="V92qSwm7xt-AE-d6XJVa-32" value="" style="group" vertex="1" connectable="0" parent="V92qSwm7xt-AE-d6XJVa-58">
          <mxGeometry x="164.9479768786127" y="1503.2589285714287" width="2092.023121387283" height="726.7410714285714" as="geometry" />
        </mxCell>
        <mxCell id="V92qSwm7xt-AE-d6XJVa-33" value="User" style="shape=umlActor;verticalLabelPosition=bottom;verticalAlign=top;html=1;outlineConnect=0;" vertex="1" parent="V92qSwm7xt-AE-d6XJVa-32">
          <mxGeometry y="155.73022959183675" width="83.72441805967817" height="103.8201530612245" as="geometry" />
        </mxCell>
        <mxCell id="V92qSwm7xt-AE-d6XJVa-34" value="&lt;font style=&quot;font-size: 22px;&quot;&gt;Create&amp;nbsp;&lt;/font&gt;&lt;div style=&quot;font-size: 22px;&quot;&gt;&lt;font style=&quot;font-size: 22px;&quot;&gt;Account&lt;/font&gt;&lt;/div&gt;" style="ellipse;whiteSpace=wrap;html=1;" vertex="1" parent="V92qSwm7xt-AE-d6XJVa-32">
          <mxGeometry x="251.17325417903447" y="17.303358843537413" width="279.08139353226056" height="103.8201530612245" as="geometry" />
        </mxCell>
        <mxCell id="V92qSwm7xt-AE-d6XJVa-35" value="&lt;font style=&quot;font-size: 24px;&quot;&gt;Login&lt;/font&gt;" style="ellipse;whiteSpace=wrap;html=1;" vertex="1" parent="V92qSwm7xt-AE-d6XJVa-32">
          <mxGeometry x="725.6116231838774" width="251.17325417903447" height="86.51679421768708" as="geometry" />
        </mxCell>
        <mxCell id="V92qSwm7xt-AE-d6XJVa-36" value="&lt;div style=&quot;font-size: 13px;&quot;&gt;&lt;font style=&quot;font-size: 24px;&quot;&gt;Acquire Stock Data&lt;/font&gt;&lt;/div&gt;" style="ellipse;whiteSpace=wrap;html=1;" vertex="1" parent="V92qSwm7xt-AE-d6XJVa-32">
          <mxGeometry x="279.0839306358381" y="294.16089285714287" width="310.97387283236986" height="114.00874999999999" as="geometry" />
        </mxCell>
        <mxCell id="V92qSwm7xt-AE-d6XJVa-37" value="" style="endArrow=none;html=1;rounded=0;fontSize=12;startSize=8;endSize=8;curved=1;entryX=0;entryY=0;entryDx=0;entryDy=0;" edge="1" parent="V92qSwm7xt-AE-d6XJVa-32" target="V92qSwm7xt-AE-d6XJVa-36">
          <mxGeometry width="50" height="50" relative="1" as="geometry">
            <mxPoint x="107.44633650992031" y="249.16836734693877" as="sourcePoint" />
            <mxPoint x="280.4768004999218" y="292.42676445578235" as="targetPoint" />
          </mxGeometry>
        </mxCell>
        <mxCell id="V92qSwm7xt-AE-d6XJVa-38" value="&lt;font style=&quot;font-size: 24px;&quot;&gt;Connect to Stock API&lt;/font&gt;" style="ellipse;whiteSpace=wrap;html=1;" vertex="1" parent="V92qSwm7xt-AE-d6XJVa-32">
          <mxGeometry x="1144.2293641618496" width="304.09433526011554" height="109.50892857142857" as="geometry" />
        </mxCell>
        <mxCell id="V92qSwm7xt-AE-d6XJVa-39" value="&lt;div style=&quot;font-size: 24px;&quot;&gt;&lt;font style=&quot;font-size: 24px;&quot;&gt;Sign in to&lt;/font&gt;&lt;/div&gt;&lt;div style=&quot;font-size: 24px;&quot;&gt;&lt;font style=&quot;font-size: 24px;&quot;&gt;&lt;font style=&quot;font-size: 24px;&quot;&gt;Previous account&lt;/font&gt;&lt;font style=&quot;font-size: 24px;&quot;&gt;&lt;br&gt;&lt;/font&gt;&lt;/font&gt;&lt;/div&gt;" style="ellipse;whiteSpace=wrap;html=1;" vertex="1" parent="V92qSwm7xt-AE-d6XJVa-32">
          <mxGeometry x="251.17325417903447" y="121.12351190476191" width="306.9895328854866" height="121.12351190476191" as="geometry" />
        </mxCell>
        <mxCell id="V92qSwm7xt-AE-d6XJVa-40" value="&lt;div style=&quot;font-size: 24px;&quot;&gt;Save Data in File&lt;/div&gt;" style="ellipse;whiteSpace=wrap;html=1;" vertex="1" parent="V92qSwm7xt-AE-d6XJVa-32">
          <mxGeometry x="1814.0254335260113" y="276.85848214285716" width="277.99768786127163" height="111.40044642857144" as="geometry" />
        </mxCell>
        <mxCell id="V92qSwm7xt-AE-d6XJVa-41" value="" style="endArrow=classic;html=1;rounded=0;" edge="1" parent="V92qSwm7xt-AE-d6XJVa-32">
          <mxGeometry width="50" height="50" relative="1" as="geometry">
            <mxPoint x="1201.4453991563817" y="297.61777210884355" as="sourcePoint" />
            <mxPoint x="1342.3815028901731" y="397.97725340136054" as="targetPoint" />
          </mxGeometry>
        </mxCell>
        <mxCell id="V92qSwm7xt-AE-d6XJVa-42" value="&lt;font style=&quot;font-size: 24px;&quot;&gt;Make Prediction&lt;/font&gt;" style="ellipse;whiteSpace=wrap;html=1;" vertex="1" parent="V92qSwm7xt-AE-d6XJVa-32">
          <mxGeometry x="1311.6825496016245" y="380.6738945578232" width="251.17325417903447" height="103.8201530612245" as="geometry" />
        </mxCell>
        <mxCell id="V92qSwm7xt-AE-d6XJVa-43" value="&lt;div style=&quot;font-size: 13px;&quot;&gt;&lt;font style=&quot;font-size: 24px;&quot;&gt;Process Stock Data&lt;/font&gt;&lt;/div&gt;" style="ellipse;whiteSpace=wrap;html=1;" vertex="1" parent="V92qSwm7xt-AE-d6XJVa-32">
          <mxGeometry x="1116.3255741290423" y="207.640306122449" width="251.17325417903447" height="103.8201530612245" as="geometry" />
        </mxCell>
        <mxCell id="V92qSwm7xt-AE-d6XJVa-44" value="" style="endArrow=none;html=1;rounded=0;" edge="1" parent="V92qSwm7xt-AE-d6XJVa-32" source="V92qSwm7xt-AE-d6XJVa-33" target="V92qSwm7xt-AE-d6XJVa-45">
          <mxGeometry width="50" height="50" relative="1" as="geometry">
            <mxPoint x="167.44883611935634" y="467.1906887755102" as="sourcePoint" />
            <mxPoint x="55.81627870645211" y="292.42676445578235" as="targetPoint" />
          </mxGeometry>
        </mxCell>
        <mxCell id="V92qSwm7xt-AE-d6XJVa-45" value="&lt;font style=&quot;font-size: 24px;&quot;&gt;User Submits Personal (local) CSV&amp;nbsp; file&lt;/font&gt;" style="ellipse;whiteSpace=wrap;html=1;" vertex="1" parent="V92qSwm7xt-AE-d6XJVa-32">
          <mxGeometry x="83.72441805967817" y="536.4041241496599" width="279.08139353226056" height="138.4268707482993" as="geometry" />
        </mxCell>
        <mxCell id="V92qSwm7xt-AE-d6XJVa-46" value="" style="endArrow=none;html=1;rounded=0;entryX=0.391;entryY=1.059;entryDx=0;entryDy=0;entryPerimeter=0;" edge="1" parent="V92qSwm7xt-AE-d6XJVa-32" target="V92qSwm7xt-AE-d6XJVa-36">
          <mxGeometry width="50" height="50" relative="1" as="geometry">
            <mxPoint x="279.08139353226056" y="536.4041241496599" as="sourcePoint" />
            <mxPoint x="418.62209029839084" y="449.88732993197283" as="targetPoint" />
          </mxGeometry>
        </mxCell>
        <mxCell id="V92qSwm7xt-AE-d6XJVa-47" value="" style="endArrow=classic;html=1;rounded=0;" edge="1" parent="V92qSwm7xt-AE-d6XJVa-32" target="V92qSwm7xt-AE-d6XJVa-35">
          <mxGeometry width="50" height="50" relative="1" as="geometry">
            <mxPoint x="502.34650835806895" y="153.999893707483" as="sourcePoint" />
            <mxPoint x="641.8872051241992" y="67.48309948979592" as="targetPoint" />
          </mxGeometry>
        </mxCell>
        <mxCell id="V92qSwm7xt-AE-d6XJVa-48" value="" style="endArrow=classic;html=1;rounded=0;entryX=0;entryY=0.5;entryDx=0;entryDy=0;" edge="1" parent="V92qSwm7xt-AE-d6XJVa-32" target="V92qSwm7xt-AE-d6XJVa-35">
          <mxGeometry width="50" height="50" relative="1" as="geometry">
            <mxPoint x="524.6730198406498" y="69.21343537414965" as="sourcePoint" />
            <mxPoint x="664.21371660678" y="-17.303358843537413" as="targetPoint" />
          </mxGeometry>
        </mxCell>
        <mxCell id="V92qSwm7xt-AE-d6XJVa-49" value="" style="endArrow=classic;html=1;rounded=0;entryX=0.072;entryY=0.719;entryDx=0;entryDy=0;entryPerimeter=0;" edge="1" parent="V92qSwm7xt-AE-d6XJVa-32" target="V92qSwm7xt-AE-d6XJVa-34">
          <mxGeometry width="50" height="50" relative="1" as="geometry">
            <mxPoint x="55.81627870645211" y="153.999893707483" as="sourcePoint" />
            <mxPoint x="195.35697547258238" y="67.48309948979592" as="targetPoint" />
          </mxGeometry>
        </mxCell>
        <mxCell id="V92qSwm7xt-AE-d6XJVa-50" value="" style="endArrow=classic;html=1;rounded=0;entryX=0.012;entryY=0.581;entryDx=0;entryDy=0;entryPerimeter=0;" edge="1" parent="V92qSwm7xt-AE-d6XJVa-32" target="V92qSwm7xt-AE-d6XJVa-39">
          <mxGeometry width="50" height="50" relative="1" as="geometry">
            <mxPoint x="83.72441805967817" y="193.79761904761907" as="sourcePoint" />
            <mxPoint x="223.26511482580844" y="107.28082482993197" as="targetPoint" />
          </mxGeometry>
        </mxCell>
        <mxCell id="V92qSwm7xt-AE-d6XJVa-51" value="" style="endArrow=classic;html=1;rounded=0;entryX=-0.004;entryY=0.347;entryDx=0;entryDy=0;entryPerimeter=0;" edge="1" parent="V92qSwm7xt-AE-d6XJVa-32" target="V92qSwm7xt-AE-d6XJVa-38">
          <mxGeometry width="50" height="50" relative="1" as="geometry">
            <mxPoint x="965.6216216216214" y="34.60671768707483" as="sourcePoint" />
            <mxPoint x="1105.1623183877518" y="-51.91007653061225" as="targetPoint" />
          </mxGeometry>
        </mxCell>
        <mxCell id="V92qSwm7xt-AE-d6XJVa-52" value="" style="endArrow=classic;html=1;rounded=0;entryX=1;entryY=0;entryDx=0;entryDy=0;" edge="1" parent="V92qSwm7xt-AE-d6XJVa-32" target="V92qSwm7xt-AE-d6XJVa-36">
          <mxGeometry width="50" height="50" relative="1" as="geometry">
            <mxPoint x="1172.1418528354943" y="89.97746598639456" as="sourcePoint" />
            <mxPoint x="933.9179753163563" y="189.79708248299298" as="targetPoint" />
          </mxGeometry>
        </mxCell>
        <mxCell id="V92qSwm7xt-AE-d6XJVa-53" value="" style="endArrow=classic;html=1;rounded=0;entryX=-0.004;entryY=0.678;entryDx=0;entryDy=0;entryPerimeter=0;" edge="1" parent="V92qSwm7xt-AE-d6XJVa-32" target="V92qSwm7xt-AE-d6XJVa-43">
          <mxGeometry width="50" height="50" relative="1" as="geometry">
            <mxPoint x="555.3719731291985" y="344.3368409863946" as="sourcePoint" />
            <mxPoint x="694.9126698953287" y="257.82004676870747" as="targetPoint" />
          </mxGeometry>
        </mxCell>
        <mxCell id="V92qSwm7xt-AE-d6XJVa-54" value="" style="endArrow=classic;html=1;rounded=0;" edge="1" parent="V92qSwm7xt-AE-d6XJVa-32" target="V92qSwm7xt-AE-d6XJVa-40">
          <mxGeometry width="50" height="50" relative="1" as="geometry">
            <mxPoint x="1562.855803780659" y="415.280612244898" as="sourcePoint" />
            <mxPoint x="1702.3965005467894" y="328.7638180272109" as="targetPoint" />
          </mxGeometry>
        </mxCell>
        <mxCell id="V92qSwm7xt-AE-d6XJVa-55" value="" style="endArrow=classic;html=1;rounded=0;" edge="1" parent="V92qSwm7xt-AE-d6XJVa-32" target="V92qSwm7xt-AE-d6XJVa-56">
          <mxGeometry width="50" height="50" relative="1" as="geometry">
            <mxPoint x="1507.039525074207" y="484.49404761904765" as="sourcePoint" />
            <mxPoint x="1590.763943133885" y="605.6175595238095" as="targetPoint" />
          </mxGeometry>
        </mxCell>
        <mxCell id="V92qSwm7xt-AE-d6XJVa-56" value="&lt;div style=&quot;font-size: 24px;&quot;&gt;&lt;font style=&quot;font-size: 24px;&quot;&gt;Return Data to GUI&lt;/font&gt;&lt;/div&gt;" style="ellipse;whiteSpace=wrap;html=1;" vertex="1" parent="V92qSwm7xt-AE-d6XJVa-32">
          <mxGeometry x="1534.947664427433" y="588.3142006802722" width="334.8976722387127" height="138.4268707482993" as="geometry" />
        </mxCell>
        <mxCell id="V92qSwm7xt-AE-d6XJVa-57" value="&lt;div style=&quot;font-size: 22px;&quot;&gt;&lt;font style=&quot;font-size: 24px;&quot;&gt;&lt;u&gt;&lt;b&gt;2nd Rough Draft UML&lt;/b&gt;&lt;br&gt;&lt;/u&gt;&lt;/font&gt;&lt;/div&gt;" style="text;html=1;align=center;verticalAlign=middle;whiteSpace=wrap;rounded=0;" vertex="1" parent="V92qSwm7xt-AE-d6XJVa-58">
          <mxGeometry x="151.53757225433526" y="1353.9285714285716" width="549.8265895953757" height="99.55357142857143" as="geometry" />
        </mxCell>
      </root>
    </mxGraphModel>
  </diagram>
</mxfile>
